<svg width="188" height="155" viewBox="0 0 188 155" fill="none" xmlns="http://www.w3.org/2000/svg">
<path d="M114.214 87.3033C114.13 87.3033 114.049 87.2697 113.989 87.2099C113.263 86.4797 112.567 85.6814 111.832 84.8408L111.408 84.3695C111.351 84.3059 111.323 84.2225 111.328 84.1377C111.333 84.0529 111.372 83.9736 111.435 83.9173C111.499 83.861 111.582 83.8323 111.667 83.8374C111.752 83.8426 111.831 83.8813 111.888 83.9449L112.312 84.4204C113.042 85.2696 113.73 86.0423 114.435 86.7599C114.479 86.8044 114.51 86.8611 114.522 86.9229C114.534 86.9846 114.528 87.0486 114.504 87.1067C114.48 87.1649 114.439 87.2146 114.387 87.2496C114.334 87.2846 114.273 87.3033 114.21 87.3033H114.214Z" fill="#EDA19B"/>
<path d="M114.329 100.245C112.741 99.5312 111.654 99.0769 111.654 99.0769C111.654 99.0769 113.505 93.2941 110.181 91.2391L111.094 91.3113C112.155 91.4307 113.21 91.6065 114.253 91.8378C114.853 93.1556 115.17 94.5849 115.183 96.033C115.197 97.4812 114.905 98.916 114.329 100.245Z" fill="#EDA19B"/>
<path d="M104.479 70.0185C102.929 70.2648 100.233 71.0715 95.9105 73.5383C95.5963 72.3495 95.2948 71.2073 95.0104 70.1416C97.8975 68.2268 101.112 67.2035 103.162 67.1356C103.544 68.0272 103.995 68.9995 104.479 70.0185Z" fill="#EDA19B"/>
<path d="M152.308 78.8711H152.253C149.551 78.4612 146.82 78.2837 144.088 78.3404V78.3404C144.004 78.3404 143.923 78.3069 143.863 78.2472C143.803 78.1874 143.77 78.1064 143.77 78.022C143.77 77.9375 143.803 77.8565 143.863 77.7968C143.923 77.7371 144.004 77.7035 144.088 77.7035H144.152C146.89 77.648 149.629 77.8255 152.338 78.2343C152.417 78.2473 152.488 78.2898 152.537 78.3532C152.587 78.4165 152.61 78.4962 152.603 78.5762C152.596 78.6561 152.559 78.7305 152.5 78.7844C152.44 78.8383 152.363 78.8678 152.282 78.8669L152.308 78.8711Z" fill="#EDA19B"/>
<path d="M136.191 78.4381C132.569 78.4381 129.431 78.2343 127.771 77.2196C126.063 76.191 124.571 74.8415 123.377 73.2455C122.929 72.6121 122.381 72.0558 121.755 71.5981C121.717 71.5767 121.684 71.5478 121.658 71.5133C121.632 71.4788 121.614 71.4393 121.603 71.3974C121.593 71.3554 121.591 71.3117 121.598 71.2691C121.606 71.2264 121.621 71.1857 121.645 71.1493C121.668 71.1129 121.699 71.0817 121.734 71.0575C121.77 71.0333 121.811 71.0167 121.853 71.0086C121.896 71.0006 121.939 71.0013 121.982 71.0106C122.024 71.02 122.064 71.0378 122.099 71.0631C122.782 71.5571 123.38 72.1595 123.869 72.8464C125.024 74.3823 126.466 75.68 128.115 76.6676C130.166 77.9413 134.908 77.8394 139.914 77.7503C139.999 77.7503 140.08 77.7838 140.139 77.8436C140.199 77.9033 140.233 77.9843 140.233 78.0687C140.233 78.1532 140.199 78.2342 140.139 78.2939C140.08 78.3536 139.999 78.3872 139.914 78.3872C138.64 78.4169 137.388 78.4381 136.191 78.4381Z" fill="#EDA19B"/>
<path d="M144.895 86.5009H144.81C141.838 85.6729 139.906 85.1295 137.265 85.1167C137.181 85.1167 137.1 85.0832 137.04 85.0235C136.98 84.9637 136.947 84.8827 136.947 84.7983C136.947 84.7138 136.98 84.6328 137.04 84.5731C137.1 84.5134 137.181 84.4799 137.265 84.4799C139.991 84.4799 142.084 85.0785 144.98 85.8852C145.053 85.9066 145.116 85.9535 145.158 86.0175C145.199 86.0815 145.216 86.1583 145.206 86.2339C145.196 86.3095 145.159 86.3789 145.102 86.4295C145.044 86.48 144.971 86.5084 144.895 86.5094V86.5009Z" fill="#EDA19B"/>
<path d="M131.321 85.4224C127.688 85.4404 124.111 84.5283 120.931 82.7731C120.198 82.369 119.529 81.8598 118.944 81.2615C118.912 81.2327 118.887 81.1977 118.869 81.1589C118.852 81.12 118.842 81.0779 118.841 81.0352C118.84 80.9925 118.847 80.95 118.863 80.9102C118.878 80.8705 118.902 80.8343 118.932 80.8038C118.962 80.7733 118.998 80.7491 119.037 80.7327C119.076 80.7163 119.119 80.7081 119.162 80.7084C119.204 80.7087 119.246 80.7176 119.286 80.7346C119.325 80.7516 119.36 80.7763 119.39 80.8072C119.931 81.3615 120.55 81.8336 121.228 82.2084C125.937 84.7049 129.652 85.0021 133.787 84.6794C133.872 84.6735 133.955 84.7009 134.019 84.7557C134.083 84.8105 134.124 84.8883 134.131 84.9724C134.135 85.0142 134.13 85.0563 134.117 85.0963C134.104 85.1363 134.084 85.1733 134.056 85.2053C134.029 85.2373 133.996 85.2635 133.958 85.2826C133.921 85.3016 133.88 85.3131 133.838 85.3163C133.023 85.3757 132.199 85.4224 131.321 85.4224Z" fill="#EDA19B"/>
<path d="M117.908 79.9496C117.861 79.9498 117.815 79.9397 117.772 79.9198C117.73 79.9 117.692 79.871 117.662 79.835C117.386 79.4953 117.118 79.1556 116.855 78.8202C115.93 77.6399 115.055 76.5232 114.197 76.1793C114.123 76.1453 114.064 76.0839 114.034 76.0077C114.003 75.9315 114.003 75.8465 114.034 75.7704C114.064 75.6943 114.123 75.633 114.198 75.5992C114.273 75.5654 114.358 75.5618 114.435 75.5891C115.45 76.0137 116.333 77.1219 117.356 78.4296C117.615 78.7565 117.879 79.0962 118.154 79.4316C118.193 79.4782 118.218 79.5349 118.226 79.5951C118.233 79.6553 118.224 79.7164 118.198 79.7712C118.172 79.8261 118.131 79.8724 118.08 79.9048C118.028 79.9371 117.969 79.9541 117.908 79.9538V79.9496Z" fill="#EDA19B"/>
<path d="M136.81 94.4023C136.775 94.4083 136.739 94.4083 136.704 94.4023C134.784 93.7301 132.828 93.1631 130.845 92.704C130.803 92.6958 130.763 92.6792 130.728 92.6552C130.692 92.6312 130.662 92.6004 130.639 92.5645C130.616 92.5286 130.6 92.4884 130.593 92.4462C130.585 92.4041 130.586 92.3609 130.596 92.3193C130.606 92.2776 130.624 92.2384 130.649 92.2038C130.674 92.1693 130.706 92.1401 130.743 92.1182C130.78 92.0963 130.82 92.0819 130.863 92.0761C130.905 92.0702 130.948 92.0729 130.989 92.0841C133.001 92.55 134.985 93.1255 136.934 93.8079C137.005 93.8323 137.066 93.8815 137.105 93.9466C137.143 94.0117 137.158 94.0885 137.145 94.1631C137.132 94.2378 137.093 94.3055 137.035 94.354C136.977 94.4025 136.903 94.4287 136.827 94.4278L136.81 94.4023Z" fill="#EDA19B"/>
<path d="M129.529 92.377H129.461C127.134 91.8845 124.659 91.4854 121.891 91.1542C119.44 90.929 117.118 89.9568 115.238 88.369C115.206 88.3411 115.179 88.3072 115.16 88.2691C115.141 88.2311 115.13 88.1897 115.127 88.1473C115.124 88.105 115.13 88.0624 115.143 88.0221C115.157 87.9818 115.178 87.9446 115.206 87.9125C115.234 87.8805 115.268 87.8542 115.306 87.8353C115.344 87.8163 115.385 87.805 115.427 87.8021C115.47 87.7991 115.512 87.8045 115.553 87.818C115.593 87.8315 115.63 87.8528 115.662 87.8807C117.448 89.3867 119.653 90.3084 121.98 90.5216C124.769 90.8528 127.266 91.2561 129.622 91.7529C129.698 91.7707 129.765 91.8155 129.809 91.8789C129.854 91.9423 129.874 92.0199 129.866 92.0971C129.858 92.1743 129.821 92.2458 129.764 92.2982C129.707 92.3505 129.632 92.3801 129.554 92.3813L129.529 92.377Z" fill="#EDA19B"/>
<path d="M98.6236 79.6778H98.424C98.3403 79.6723 98.2621 79.634 98.2064 79.5712C98.1508 79.5084 98.1222 79.4261 98.1268 79.3423C98.129 79.3007 98.1394 79.2599 98.1575 79.2223C98.1756 79.1847 98.201 79.1511 98.2322 79.1234C98.2635 79.0958 98.2999 79.0746 98.3394 79.0611C98.3789 79.0477 98.4206 79.0423 98.4623 79.0451C100.373 79.1555 104.177 77.16 105.731 75.5211C105.756 75.4823 105.79 75.4494 105.829 75.4248C105.868 75.4002 105.912 75.3844 105.958 75.3786C106.004 75.3727 106.051 75.377 106.095 75.391C106.139 75.405 106.179 75.4285 106.213 75.4598C106.248 75.4911 106.274 75.5295 106.292 75.5722C106.31 75.6149 106.318 75.661 106.316 75.7073C106.315 75.7535 106.303 75.7988 106.281 75.84C106.26 75.8812 106.23 75.9172 106.194 75.9457C104.602 77.6483 100.78 79.6778 98.6236 79.6778Z" fill="#EDA19B"/>
<path d="M101.324 88.904C101.239 88.904 101.158 88.8705 101.099 88.8108C101.039 88.7511 101.005 88.6701 101.005 88.5856C101.005 88.5011 101.039 88.4201 101.099 88.3604C101.158 88.3007 101.239 88.2672 101.324 88.2672V88.2672C103.294 88.2672 107.786 85.1125 108.911 82.4844C108.928 82.4459 108.951 82.411 108.981 82.3818C109.011 82.3525 109.047 82.3294 109.085 82.3139C109.124 82.2983 109.166 82.2905 109.208 82.291C109.249 82.2915 109.291 82.3002 109.329 82.3166C109.368 82.3331 109.403 82.357 109.432 82.3869C109.461 82.4168 109.484 82.4522 109.5 82.491C109.515 82.5298 109.523 82.5714 109.523 82.6132C109.522 82.6551 109.513 82.6964 109.497 82.7349C108.334 85.4437 103.752 88.904 101.324 88.904Z" fill="#EDA19B"/>
<path d="M118.133 102.363C118.072 102.363 118.011 102.346 117.96 102.312C117.908 102.279 117.867 102.231 117.842 102.175C117.817 102.119 117.809 102.057 117.818 101.996C117.828 101.935 117.854 101.878 117.895 101.833C119.674 99.837 120.018 96.2323 118.638 94.2665C118.612 94.2326 118.592 94.1937 118.581 94.1521C118.57 94.1105 118.568 94.0671 118.574 94.0245C118.58 93.9819 118.595 93.941 118.617 93.9042C118.639 93.8675 118.669 93.8357 118.704 93.8107C118.739 93.7857 118.779 93.768 118.821 93.7589C118.863 93.7497 118.906 93.7491 118.949 93.7572C118.991 93.7652 119.031 93.7818 119.067 93.8058C119.103 93.8299 119.133 93.8609 119.156 93.8971C120.702 96.0794 120.324 100.066 118.367 102.257C118.337 102.29 118.301 102.316 118.261 102.335C118.221 102.353 118.177 102.363 118.133 102.363V102.363Z" fill="#EDA19B"/>
<path d="M125.945 103.505C125.891 103.505 125.837 103.491 125.789 103.464C125.742 103.437 125.702 103.398 125.674 103.351C125.646 103.304 125.63 103.25 125.629 103.196C125.627 103.141 125.64 103.087 125.665 103.038C127.245 100.066 126.514 97.6079 124.816 94.6358C124.782 94.5632 124.776 94.4803 124.8 94.4036C124.824 94.327 124.876 94.2623 124.946 94.2225C125.016 94.1828 125.098 94.1709 125.177 94.1893C125.255 94.2077 125.323 94.255 125.368 94.3216C126.778 96.8012 128.119 99.7478 126.217 103.34C126.19 103.389 126.151 103.43 126.103 103.459C126.056 103.488 126.001 103.504 125.945 103.505V103.505Z" fill="#EDA19B"/>
<path d="M56.4032 57.5359C55.9376 58.0106 55.4256 58.4373 54.8747 58.8096C53.206 60.0834 50.7095 61.8921 50.2637 62.2063L50.1957 62.2572L50.1321 62.3082C49.9991 62.4006 49.8568 62.4789 49.7075 62.5417C48.5144 61.6288 47.4232 61.0387 46.6887 61.1703C45.873 61.4202 45.1221 61.8463 44.4894 62.4186C41.8775 60.7836 39.4038 58.9376 37.0931 56.899C38.8636 53.8547 45.6357 48.8574 47.3935 48.8574C49.1513 48.8574 52.5097 51.4431 53.4311 52.5852C53.6223 52.1631 53.8678 51.7677 54.1614 51.4091C55.312 54.6487 56.348 57.4934 56.4032 57.5359Z" fill="#EDA19B"/>
<path d="M43.5681 154.247C40.4177 154.247 35.6454 153.742 29.7947 152.974C26.4235 152.549 24.4152 151.56 24.2751 150.299C24.1987 149.539 24.8483 148.855 26.0074 148.464C31.9516 146.473 42.0227 141.951 44.6466 140.27C44.6817 140.245 44.7215 140.227 44.7637 140.218C44.8059 140.208 44.8496 140.207 44.8921 140.216C44.9346 140.224 44.975 140.24 45.0108 140.264C45.0466 140.289 45.0772 140.32 45.1006 140.356C45.1239 140.393 45.1397 140.433 45.1468 140.476C45.1539 140.519 45.1523 140.562 45.142 140.604C45.1317 140.646 45.1129 140.686 45.0869 140.72C45.0608 140.755 45.028 140.784 44.9905 140.805C42.3368 142.503 32.1808 147.063 26.2112 149.067C25.362 149.352 24.8653 149.798 24.9077 150.235C24.9757 150.919 26.3131 151.882 29.8584 152.358C34.291 152.931 46.0732 154.455 47.0709 153.046C48.1324 151.547 50.5525 145.866 50.578 145.828C50.5944 145.789 50.6183 145.754 50.6482 145.725C50.6781 145.696 50.7135 145.673 50.7524 145.657C50.7912 145.642 50.8327 145.634 50.8746 145.634C50.9164 145.635 50.9577 145.644 50.9962 145.66C51.0347 145.677 51.0695 145.7 51.0988 145.73C51.128 145.76 51.1511 145.796 51.1667 145.834C51.1822 145.873 51.19 145.915 51.1895 145.957C51.1891 145.998 51.1804 146.04 51.1639 146.078C51.062 146.316 48.6928 151.878 47.5889 153.436C47.1898 153.997 45.7802 154.247 43.5681 154.247Z" fill="#0F2064"/>
<path d="M20.9207 124.756C20.6242 124.774 20.3288 124.705 20.0715 124.556C17.2183 122.654 8.12803 112.986 7.93273 109.67C7.90857 109.489 7.92835 109.304 7.99042 109.132C8.05249 108.96 8.15502 108.805 8.28937 108.681C9.30413 107.832 14.3906 109.199 21.4514 111.25C22.619 111.589 23.7187 111.908 24.674 112.171C24.7556 112.194 24.825 112.248 24.8668 112.321C24.9086 112.395 24.9194 112.482 24.8969 112.564C24.8744 112.645 24.8204 112.715 24.7467 112.757C24.6731 112.798 24.5858 112.809 24.5042 112.787C23.5489 112.519 22.4449 112.201 21.2731 111.861C16.8787 110.587 9.52491 108.464 8.69273 109.165C8.65451 109.199 8.53987 109.297 8.55686 109.636C8.72669 112.485 17.4264 122.038 20.4112 124.03C20.7636 124.263 22.6275 124.607 31.9174 119.185L32.1976 119.024C32.2712 118.985 32.3571 118.976 32.437 119C32.5169 119.023 32.5843 119.077 32.6249 119.15C32.6654 119.223 32.6758 119.309 32.6539 119.389C32.632 119.469 32.5794 119.538 32.5075 119.58L32.2358 119.737C26.5294 123.074 22.7294 124.756 20.9207 124.756Z" fill="#0F2064"/>
<path d="M54.8321 143.871H54.7769C53.8641 143.709 45.7545 142.172 42.2645 138.351C42.2171 138.299 42.188 138.233 42.1819 138.164C42.1757 138.094 42.1928 138.024 42.2305 137.965C42.2305 137.965 43.1731 136.479 44.536 134.3C44.8926 133.731 45.4658 132.785 46.1961 131.57C50.6118 124.251 60.9588 107.102 65.1877 105.14C71.0809 102.406 90.8409 110.367 97.9569 113.661C98.0302 113.699 98.0861 113.763 98.1129 113.841C98.1397 113.919 98.1353 114.004 98.1007 114.079C98.0662 114.153 98.004 114.212 97.9274 114.242C97.8507 114.272 97.7654 114.271 97.6895 114.239C91.1212 111.195 71.1064 103.098 65.4594 105.718C61.4047 107.598 51.1298 124.628 46.7438 131.897C46.0093 133.116 45.4319 134.067 45.0752 134.64C44.0138 136.338 43.2028 137.612 42.8971 138.096C46.1324 141.425 53.1211 142.902 54.6623 143.191C54.9468 142.682 55.7662 141.242 56.9168 139.315C59.7214 134.545 62.7799 129.928 66.0793 125.486C68.7584 121.966 71.0257 119.61 72.8132 118.476C72.8847 118.431 72.9712 118.416 73.0536 118.435C73.136 118.454 73.2076 118.505 73.2526 118.576C73.2977 118.648 73.3125 118.734 73.2937 118.816C73.275 118.899 73.2243 118.97 73.1528 119.015C71.429 120.107 69.2212 122.412 66.5846 125.872C63.3033 130.299 60.2617 134.898 57.473 139.65C56.0379 142.053 55.1251 143.692 55.1166 143.709C55.0882 143.759 55.0467 143.801 54.9966 143.829C54.9466 143.858 54.8897 143.872 54.8321 143.871Z" fill="#0F2064"/>
<path d="M147.718 71.1905H147.692C147.609 71.1829 147.531 71.1425 147.477 71.0781C147.423 71.0136 147.397 70.9304 147.404 70.8466C147.531 69.3563 146.941 67.2886 146.368 65.293C145.931 63.9032 145.592 62.4844 145.353 61.0472C145.09 59.0219 145.604 57.0222 146.147 54.9035C147.043 51.4177 147.968 47.813 145.4 43.754C142.262 38.7863 137.655 40.5441 137.46 40.6248L137.235 40.714L137.086 40.5229C137.057 40.4847 134.076 36.6549 130.021 37.5084C124.26 38.7184 122.209 45.5117 121.53 50.9973C121.016 54.9842 119.19 55.6465 117.076 56.4065C115.801 56.8047 114.6 57.41 113.522 58.1983C111.488 59.765 111.425 61.3656 111.365 62.9154C111.318 64.0702 111.276 65.1656 110.338 65.9978C109.769 66.4798 109.053 66.7552 108.308 66.7791C107.234 66.9107 106.126 67.0423 104.546 69.662C104.525 69.6979 104.497 69.7293 104.463 69.7543C104.429 69.7793 104.391 69.7975 104.351 69.8077C104.269 69.8284 104.182 69.8157 104.109 69.7724C104.036 69.729 103.984 69.6586 103.963 69.5766C103.943 69.4946 103.955 69.4077 103.999 69.3351C105.739 66.4479 107.06 66.2908 108.245 66.1464C108.865 66.1389 109.465 65.9185 109.943 65.5223C110.677 64.8684 110.716 63.998 110.758 62.8899C110.817 61.3571 110.894 59.4465 113.161 57.693C114.291 56.8631 115.551 56.2261 116.889 55.8079C118.965 55.0606 120.464 54.5341 120.927 50.9167C121.657 45.2273 123.81 38.1792 129.941 36.9055C133.911 36.0563 136.823 39.177 137.498 39.9794C138.543 39.661 142.967 38.659 145.99 43.4398C148.703 47.7323 147.688 51.6385 146.814 55.0861C146.287 57.141 145.786 59.0814 146.037 60.9878C146.271 62.3961 146.603 63.7864 147.03 65.1487C147.616 67.2036 148.227 69.3266 148.087 70.9315C148.08 70.9728 148.065 71.0122 148.042 71.0476C148.02 71.083 147.991 71.1136 147.956 71.1377C147.922 71.1617 147.883 71.1788 147.842 71.1878C147.801 71.1969 147.759 71.1978 147.718 71.1905Z" fill="#0F2064"/>
<path d="M57.1927 139.48C55.7364 141.913 54.8321 143.548 54.8321 143.548C51.7496 143 45.3766 141.285 42.5192 138.134C42.5192 138.134 43.4617 136.648 44.8289 134.47C46.8881 136.084 50.5947 137.964 57.1927 139.48Z" fill="#0F2064"/>
<path d="M54.8321 143.87H54.7769C53.8641 143.709 45.7545 142.172 42.2645 138.351C42.2171 138.299 42.188 138.233 42.1819 138.163C42.1757 138.094 42.1928 138.024 42.2305 137.964C42.2305 137.964 43.1731 136.478 44.536 134.3C44.5598 134.262 44.5912 134.23 44.6284 134.205C44.6655 134.18 44.7075 134.163 44.7515 134.156C44.7956 134.148 44.8407 134.15 44.8841 134.161C44.9274 134.172 44.9679 134.192 45.003 134.22C47.5718 136.219 51.6987 137.884 57.265 139.17C57.314 139.182 57.3595 139.205 57.398 139.237C57.4364 139.27 57.4666 139.311 57.4861 139.357C57.5056 139.404 57.5138 139.454 57.51 139.504C57.5063 139.554 57.4907 139.603 57.4645 139.646C56.0294 142.049 55.1166 143.688 55.1081 143.705C55.0809 143.754 55.0411 143.796 54.9926 143.825C54.9441 143.854 54.8887 143.87 54.8321 143.87V143.87ZM42.9014 138.1C46.1367 141.429 53.1253 142.907 54.6665 143.195C54.934 142.72 55.6643 141.433 56.7003 139.692C51.4482 138.444 47.4826 136.844 44.8969 134.937C43.9204 136.508 43.1858 137.65 42.8971 138.105L42.9014 138.1Z" fill="#0F2064"/>
<path d="M32.9705 121.181C32.9225 121.181 32.875 121.171 32.8316 121.15C32.7882 121.129 32.7501 121.099 32.72 121.062C32.5629 120.862 28.8308 116.094 28.075 110.367C28.0671 110.308 28.0756 110.248 28.0996 110.195C28.1236 110.141 28.1621 110.094 28.2109 110.061C28.2109 110.061 29.612 109.11 31.8623 107.628C38.2565 103.425 61.5831 89.8551 63.6465 89.2776C65.8246 88.6662 69.7266 88.7044 73.5351 90.165C75.3944 90.8957 77.2005 91.7555 78.94 92.738C80.0779 93.3664 81.2964 94.0797 82.5659 94.8609C91.1043 100.13 111.599 111.241 111.807 111.356C111.878 111.398 111.93 111.465 111.952 111.545C111.974 111.624 111.965 111.709 111.926 111.781C111.887 111.853 111.821 111.908 111.743 111.933C111.664 111.959 111.579 111.952 111.505 111.916C111.297 111.806 90.7901 100.686 82.2348 95.4044C80.961 94.6274 79.7637 93.9183 78.6385 93.2814C76.9254 92.3091 75.1463 91.4579 73.3143 90.7339C69.6629 89.3286 65.8374 89.2989 63.8249 89.8848C61.8123 90.4707 38.316 104.147 32.219 108.142C30.4145 109.331 29.1662 110.171 28.7374 110.46C29.4379 115.292 32.3718 119.499 33.0724 120.45C33.6031 120.2 35.0127 119.542 36.9573 118.616C42.1712 116.124 51.8474 111.398 58.1015 107.84C58.1741 107.806 58.257 107.8 58.3337 107.824C58.4103 107.848 58.475 107.901 58.5148 107.971C58.5545 108.04 58.5664 108.123 58.548 108.201C58.5297 108.279 58.4824 108.347 58.4157 108.392C52.1446 111.976 42.4514 116.697 37.229 119.194C34.724 120.387 33.1063 121.138 33.1063 121.138C33.0649 121.163 33.0184 121.177 32.9705 121.181V121.181Z" fill="#0F2064"/>
<path d="M37.0931 118.918C34.5881 120.111 32.9747 120.862 32.9747 120.862C32.9747 120.862 29.1535 116.031 28.3977 110.324C28.3977 110.324 29.7691 109.39 32.0491 107.896C32.7115 111.059 34.1211 115.368 37.0931 118.918Z" fill="#0F2064"/>
<path d="M32.9705 121.181C32.9225 121.181 32.875 121.171 32.8316 121.15C32.7882 121.129 32.7501 121.099 32.72 121.062C32.5629 120.862 28.8308 116.094 28.075 110.367C28.0671 110.308 28.0756 110.248 28.0996 110.195C28.1236 110.141 28.1621 110.094 28.2109 110.061C28.2109 110.061 29.612 109.11 31.8666 107.628C31.9099 107.599 31.9596 107.581 32.0114 107.576C32.0632 107.571 32.1155 107.579 32.1637 107.598C32.2118 107.618 32.2545 107.649 32.2878 107.689C32.3211 107.729 32.3441 107.777 32.3548 107.828C32.9875 110.834 34.3673 115.16 37.3352 118.714C37.3665 118.751 37.3889 118.795 37.4007 118.842C37.4124 118.889 37.4132 118.939 37.403 118.986C37.3927 119.034 37.3717 119.078 37.3416 119.117C37.3114 119.155 37.2729 119.185 37.229 119.206C34.724 120.4 33.1063 121.151 33.1063 121.151C33.0638 121.171 33.0174 121.181 32.9705 121.181V121.181ZM28.7246 110.473C29.4252 115.305 32.3591 119.512 33.0596 120.463C33.5564 120.23 34.8216 119.635 36.5752 118.803C33.8451 115.406 32.4864 111.369 31.8199 108.409C30.2319 109.462 29.1322 110.184 28.7331 110.473H28.7246Z" fill="#0F2064"/>
<path d="M31.5141 104.032C31.4703 104.032 31.4269 104.023 31.3867 104.005C31.3466 103.988 31.3104 103.962 31.2806 103.93C17.2057 88.9762 8.14937 70.0101 0.872032 54.7676C0.859942 54.742 0.851374 54.7148 0.846558 54.6869C0.57058 53.1245 0.714938 52.2286 1.30511 51.8592C2.07785 51.3794 3.3898 51.9187 5.82691 53.7231C8.51876 55.7144 9.09195 56.64 10.1407 58.3214C10.4421 58.8011 10.7775 59.3488 11.2191 60.0197C11.4187 60.3126 11.7116 60.7839 12.115 61.4335C22.5554 78.1324 34.0998 90.6533 46.434 98.6609C46.4691 98.6838 46.4994 98.7133 46.5231 98.7479C46.5468 98.7825 46.5634 98.8214 46.5721 98.8624C46.5808 98.9034 46.5813 98.9457 46.5736 98.9869C46.566 99.0281 46.5502 99.0674 46.5274 99.1025C46.5045 99.1376 46.475 99.1679 46.4404 99.1916C46.4058 99.2153 46.3669 99.232 46.3259 99.2406C46.2849 99.2493 46.2426 99.2498 46.2014 99.2421C46.1602 99.2345 46.1209 99.2187 46.0858 99.1959C33.6795 91.1288 22.0714 78.5527 11.58 61.7562C11.1766 61.1109 10.8879 60.6481 10.6969 60.3636C10.2468 59.7012 9.90714 59.1493 9.60569 58.6653C8.56971 56.9967 8.04747 56.1602 5.45752 54.2411C3.41104 52.7254 2.13304 52.1182 1.63628 52.4069C1.44947 52.5216 1.18622 52.9504 1.4622 54.5298C8.71831 69.7214 17.7492 88.6195 31.7434 103.488C31.7855 103.534 31.8135 103.591 31.8239 103.652C31.8342 103.713 31.8266 103.776 31.8018 103.832C31.777 103.889 31.7362 103.937 31.6843 103.971C31.6325 104.005 31.5719 104.023 31.5099 104.023L31.5141 104.032Z" fill="#0F2064"/>
<path d="M51.3336 119.72C51.2803 119.72 51.2277 119.707 51.1808 119.682C49.3381 118.654 47.5039 117.525 45.7334 116.332C45.6686 116.283 45.6252 116.21 45.612 116.13C45.5988 116.05 45.6169 115.967 45.6626 115.9C45.7082 115.833 45.778 115.785 45.8575 115.768C45.937 115.75 46.0202 115.764 46.0901 115.805C47.8478 116.99 49.665 118.107 51.4907 119.126C51.5536 119.16 51.6032 119.214 51.6317 119.279C51.6601 119.345 51.6657 119.418 51.6476 119.487C51.6295 119.556 51.5887 119.617 51.5317 119.66C51.4748 119.703 51.405 119.726 51.3336 119.724V119.72Z" fill="#0F2064"/>
<path d="M89.9197 129.244C81.9133 129.296 73.9407 128.201 66.245 125.991C66.2049 125.98 66.1674 125.96 66.1348 125.934C66.1022 125.908 66.0751 125.875 66.055 125.839C66.0349 125.802 66.0222 125.762 66.0176 125.72C66.0131 125.679 66.0168 125.637 66.0285 125.596C66.0402 125.556 66.0597 125.519 66.0859 125.486C66.112 125.454 66.1444 125.426 66.1811 125.406C66.2177 125.386 66.258 125.374 66.2996 125.369C66.3411 125.364 66.3832 125.368 66.4233 125.38C75.0933 127.927 84.5997 128.976 94.6793 128.488C104.135 128.029 112.771 126.789 120.35 124.858C120.429 124.843 120.511 124.859 120.579 124.903C120.647 124.946 120.696 125.014 120.715 125.092C120.735 125.17 120.725 125.253 120.686 125.324C120.647 125.395 120.583 125.448 120.507 125.473C112.885 127.435 104.207 128.662 94.709 129.12C93.0956 129.203 91.4992 129.244 89.9197 129.244Z" fill="#0F2064"/>
<path d="M126.196 123.805C126.121 123.803 126.049 123.776 125.992 123.727C125.935 123.677 125.898 123.61 125.886 123.536C125.875 123.462 125.89 123.386 125.928 123.322C125.967 123.257 126.027 123.209 126.098 123.185C155.819 113.39 164.094 92.6657 171.389 74.3789L171.435 74.2558C179.596 53.7994 185.735 29.9039 186.882 25.3227C186.892 25.282 186.91 25.2437 186.934 25.2099C186.959 25.1761 186.991 25.1476 187.026 25.1259C187.062 25.1042 187.102 25.0898 187.144 25.0835C187.185 25.0772 187.227 25.0791 187.268 25.0892C187.309 25.0992 187.347 25.1172 187.381 25.142C187.414 25.1669 187.443 25.1981 187.465 25.234C187.486 25.2699 187.501 25.3097 187.507 25.3511C187.513 25.3926 187.512 25.4348 187.501 25.4756C186.351 30.0653 180.203 53.999 172.03 74.4936L171.983 74.6167C168.467 83.431 164.485 93.4172 157.713 102.215C149.947 112.32 139.672 119.372 126.294 123.775C126.263 123.79 126.23 123.8 126.196 123.805V123.805Z" fill="#0F2064"/>
<path d="M180.339 26.6094C176.539 26.6144 172.776 25.8625 169.27 24.3973C169.197 24.3612 169.141 24.2989 169.113 24.2231C169.085 24.1472 169.087 24.0635 169.118 23.9888C169.15 23.9142 169.208 23.8544 169.282 23.8214C169.356 23.7884 169.44 23.7849 169.516 23.8114C178.908 27.7473 187.009 25.1276 187.09 25.0851C187.13 25.0683 187.173 25.0599 187.217 25.0607C187.261 25.0614 187.304 25.0712 187.344 25.0894C187.384 25.1076 187.42 25.1338 187.449 25.1664C187.478 25.1991 187.501 25.2374 187.514 25.279C187.528 25.3206 187.533 25.3646 187.529 25.4083C187.525 25.4519 187.512 25.4943 187.491 25.5327C187.47 25.5711 187.441 25.6047 187.406 25.6314C187.371 25.6582 187.332 25.6774 187.289 25.688C185.028 26.3271 182.688 26.6374 180.339 26.6094V26.6094Z" fill="#0F2064"/>
<path d="M146.283 64.1678C146.223 64.1676 146.165 64.1508 146.115 64.1192C146.064 64.0875 146.024 64.0424 145.998 63.9889C145.972 63.9354 145.961 63.8757 145.967 63.8165C145.973 63.7573 145.996 63.7011 146.032 63.6541C162.103 42.9727 168.06 26.9914 169.091 23.9981C169.105 23.9585 169.126 23.922 169.154 23.8906C169.182 23.8593 169.216 23.8337 169.253 23.8154C169.291 23.797 169.332 23.7863 169.374 23.7838C169.415 23.7813 169.457 23.787 169.497 23.8006C169.536 23.8143 169.573 23.8356 169.604 23.8634C169.636 23.8912 169.661 23.9248 169.68 23.9625C169.698 24.0001 169.709 24.041 169.711 24.0828C169.714 24.1246 169.708 24.1665 169.694 24.2061C168.658 27.2164 162.672 43.2826 146.538 64.0447C146.508 64.0834 146.469 64.1147 146.425 64.1361C146.38 64.1574 146.332 64.1683 146.283 64.1678Z" fill="#0F2064"/>
<path d="M75.8872 121.27C74.7068 121.27 73.5109 121.24 72.2995 121.181C72.2577 121.179 72.2167 121.168 72.1789 121.15C72.1411 121.132 72.1073 121.107 72.0793 121.075C72.0513 121.044 72.0297 121.008 72.0157 120.968C72.0018 120.929 71.9958 120.887 71.998 120.845C72.0002 120.804 72.0107 120.763 72.0288 120.725C72.0468 120.687 72.0721 120.653 72.1033 120.625C72.1344 120.597 72.1708 120.576 72.2103 120.562C72.2498 120.548 72.2916 120.542 72.3334 120.544C93.5626 121.605 110.121 112.965 122.192 105.318C136.263 96.4021 156.583 77.0242 166.557 58.6907C175.864 41.5673 177.553 29.1822 177.566 29.0591C177.571 29.0176 177.585 28.9775 177.606 28.9411C177.626 28.9048 177.654 28.8729 177.687 28.8473C177.72 28.8216 177.758 28.8028 177.799 28.7918C177.839 28.7808 177.881 28.7778 177.923 28.7831C177.964 28.7884 178.004 28.8019 178.041 28.8227C178.077 28.8434 178.109 28.8712 178.135 28.9043C178.16 28.9374 178.179 28.9753 178.19 29.0157C178.201 29.0561 178.204 29.0982 178.199 29.1398C178.199 29.2629 176.479 41.7669 167.117 58.9922C157.101 77.4233 136.67 96.8946 122.536 105.858C111.077 113.118 95.5793 121.27 75.8872 121.27Z" fill="#0F2064"/>
<path d="M170.31 24.7835C170.268 24.7834 170.226 24.7747 170.187 24.758C170.147 24.7422 170.111 24.7186 170.08 24.6884C170.05 24.6583 170.026 24.6224 170.01 24.5827C169.993 24.5431 169.985 24.5006 169.986 24.4577C169.986 24.4149 169.996 24.3726 170.013 24.3334C173.291 16.4065 175.031 9.1461 176.568 2.73915L176.993 0.964397C177.013 0.882194 177.064 0.811185 177.136 0.766994C177.208 0.722802 177.295 0.709048 177.377 0.728754C177.459 0.74846 177.53 0.800013 177.575 0.872074C177.619 0.944134 177.633 1.0308 177.613 1.113L177.188 2.88775C175.647 9.32018 173.898 16.606 170.603 24.5797C170.58 24.639 170.54 24.6901 170.488 24.7265C170.436 24.7628 170.374 24.7826 170.31 24.7835Z" fill="#0F2064"/>
<path d="M185.574 26.1168C185.532 26.1152 185.491 26.1053 185.453 26.0878C185.415 26.0702 185.381 26.0454 185.352 26.0146C185.324 25.9838 185.302 25.9478 185.287 25.9085C185.273 25.8692 185.266 25.8275 185.268 25.7856C185.412 22.4187 181.727 8.84055 178.475 2.00902C178.454 1.97112 178.442 1.92946 178.438 1.88656C178.434 1.84366 178.438 1.80041 178.452 1.75942C178.465 1.71843 178.486 1.68057 178.515 1.64811C178.543 1.61565 178.578 1.58928 178.617 1.57059C178.655 1.5519 178.698 1.54128 178.741 1.53937C178.784 1.53747 178.827 1.54432 178.867 1.55951C178.907 1.57469 178.944 1.5979 178.975 1.62773C179.006 1.65756 179.031 1.69338 179.048 1.73304C182.402 8.77686 186.058 22.2998 185.905 25.8111C185.903 25.8529 185.893 25.894 185.876 25.932C185.858 25.97 185.833 26.0042 185.803 26.0326C185.772 26.061 185.736 26.0831 185.697 26.0975C185.657 26.112 185.615 26.1185 185.574 26.1168Z" fill="#0F2064"/>
<path d="M174.764 28.3287C174.713 28.3296 174.662 28.3181 174.616 28.295C174.57 28.272 174.53 28.2381 174.5 28.1964C174.47 28.1547 174.451 28.1063 174.443 28.0554C174.436 28.0045 174.441 27.9526 174.458 27.9042C175.112 25.6921 177.558 11.6214 177.965 2.40375C177.967 2.36193 177.977 2.32091 177.995 2.28302C178.013 2.24513 178.038 2.21112 178.069 2.18293C178.1 2.15474 178.136 2.13292 178.176 2.11872C178.215 2.10452 178.257 2.09822 178.299 2.10017C178.34 2.10212 178.381 2.11229 178.419 2.1301C178.457 2.1479 178.491 2.173 178.519 2.20395C178.548 2.2349 178.569 2.27109 178.584 2.31047C178.598 2.34986 178.604 2.39165 178.602 2.43347C178.178 11.6979 175.732 25.8619 175.07 28.0867C175.053 28.1552 175.014 28.2162 174.958 28.26C174.903 28.3038 174.835 28.328 174.764 28.3287V28.3287Z" fill="#0F2064"/>
<path d="M180.496 28.9445C180.411 28.9445 180.33 28.911 180.271 28.8513C180.211 28.7915 180.177 28.7106 180.177 28.6261C180.174 28.5979 180.174 28.5694 180.177 28.5412C180.279 27.5052 179.999 11.4263 177.961 2.50155C177.948 2.42167 177.966 2.33997 178.012 2.27303C178.057 2.20608 178.126 2.15891 178.205 2.14108C178.284 2.12325 178.367 2.1361 178.437 2.17702C178.506 2.21795 178.558 2.28388 178.581 2.36144C180.508 10.8021 181.107 28.3586 180.733 28.8257C180.705 28.8612 180.668 28.8902 180.627 28.9107C180.586 28.9312 180.542 28.9427 180.496 28.9445V28.9445Z" fill="#0F2064"/>
<path d="M1.11827 52.9716C1.05777 52.9717 0.998484 52.9546 0.947353 52.9223C0.896222 52.89 0.855357 52.8438 0.829546 52.789C-0.0196189 50.9718 0.553568 35.7123 3.41101 26.6475C3.42244 26.6063 3.44204 26.5679 3.46865 26.5344C3.49525 26.501 3.52831 26.4733 3.56586 26.4529C3.60341 26.4325 3.64468 26.4199 3.68721 26.4158C3.72974 26.4116 3.77266 26.4161 3.81342 26.429C3.85418 26.4418 3.89194 26.4627 3.92445 26.4904C3.95696 26.5181 3.98357 26.5521 4.00267 26.5903C4.02178 26.6286 4.03299 26.6702 4.03565 26.7129C4.03831 26.7555 4.03237 26.7983 4.01816 26.8386C1.26687 35.5722 0.621501 50.8062 1.40698 52.5173C1.4299 52.5659 1.44016 52.6195 1.43679 52.6731C1.43343 52.7267 1.41655 52.7786 1.38774 52.824C1.35892 52.8693 1.31911 52.9066 1.27199 52.9324C1.22487 52.9583 1.17199 52.9717 1.11827 52.9716V52.9716Z" fill="#0F2064"/>
<path d="M7.74611 54.1392C7.67051 54.1392 7.59738 54.1122 7.53982 54.0632C7.48226 54.0142 7.44401 53.9463 7.43191 53.8717C7.10499 51.804 6.67191 49.2268 6.21336 46.4967C4.84196 38.3405 3.29223 29.0888 3.38989 26.7494C3.39037 26.7072 3.39946 26.6655 3.4166 26.627C3.43374 26.5884 3.45858 26.5538 3.48959 26.5252C3.52059 26.4965 3.55712 26.4745 3.59692 26.4605C3.63672 26.4465 3.67896 26.4408 3.72106 26.4437C3.76289 26.4453 3.80399 26.4552 3.842 26.4727C3.88001 26.4903 3.91419 26.5151 3.94258 26.5459C3.97097 26.5767 3.99302 26.6127 4.00747 26.652C4.02191 26.6913 4.02847 26.733 4.02676 26.7749C3.92911 29.0549 5.54252 38.6632 6.84174 46.3906C7.30029 49.1206 7.73337 51.6978 8.06029 53.7698C8.07377 53.8531 8.05361 53.9384 8.00425 54.0069C7.95489 54.0753 7.88037 54.1214 7.79706 54.1349L7.74611 54.1392Z" fill="#0F2064"/>
<path d="M5.3896 54.139C5.31274 54.1387 5.2386 54.1106 5.18085 54.0599C5.12311 54.0091 5.08566 53.9392 5.07541 53.8631C5.07541 53.723 3.26244 39.5716 3.1011 30.9101C3.10054 30.8683 3.10822 30.8268 3.12371 30.788C3.13919 30.7491 3.16218 30.7137 3.19136 30.6837C3.22053 30.6538 3.25533 30.6298 3.29375 30.6133C3.33217 30.5968 3.37347 30.588 3.41529 30.5875C3.4991 30.5885 3.57931 30.6217 3.63937 30.6801C3.69942 30.7386 3.73472 30.8179 3.73798 30.9017C3.89507 39.5292 5.68681 53.6423 5.70379 53.7866C5.70915 53.8282 5.70625 53.8704 5.69528 53.9108C5.6843 53.9512 5.66545 53.9891 5.63981 54.0222C5.61417 54.0554 5.58225 54.0831 5.54587 54.1039C5.50949 54.1247 5.46937 54.138 5.42781 54.1433L5.3896 54.139Z" fill="#0F2064"/>
<path d="M2.81654 50.7001C2.74094 50.7 2.66782 50.6731 2.61025 50.6241C2.55269 50.5751 2.51444 50.5072 2.50235 50.4326C2.21363 48.6706 2.31128 40.4931 3.10525 35.1731C3.12269 35.0944 3.16929 35.0253 3.23567 34.9797C3.30205 34.934 3.38327 34.9152 3.46296 34.927C3.54265 34.9389 3.61489 34.9805 3.66511 35.0435C3.71534 35.1065 3.73983 35.1862 3.73363 35.2665C2.88447 40.8285 2.88447 48.8064 3.13073 50.3307C3.1442 50.414 3.12405 50.4993 3.07469 50.5677C3.02532 50.6362 2.9508 50.6823 2.86749 50.6958L2.81654 50.7001Z" fill="#0F2064"/>
<path d="M60.6574 79.8391C48.3445 79.6184 39.8528 79.6184 33.2124 79.8391C31.3701 79.8391 29.6031 79.1082 28.2992 77.8067C26.9953 76.5052 26.2611 74.7395 26.2577 72.8972C26.9073 61.4844 26.9073 52.8484 26.2577 45.7027C26.2555 44.7891 26.4333 43.8839 26.781 43.039C27.1287 42.1941 27.6395 41.426 28.2842 40.7786C28.9288 40.1311 29.6948 39.6171 30.5382 39.2658C31.3816 38.9144 32.286 38.7328 33.1996 38.7311C42.8122 38.9858 53.7112 39.2151 61.5278 38.7311C63.3715 38.7288 65.1407 39.4588 66.4464 40.7605C67.7522 42.0623 68.4875 43.8292 68.4909 45.673C67.8838 50.8487 68.1343 59.8668 68.3763 68.6005C68.4145 70.0398 68.457 71.4791 68.4909 72.9057C68.4949 74.2916 68.0821 75.6466 67.3063 76.7949C67.257 76.8597 67.1848 76.9031 67.1044 76.9163C67.0241 76.9295 66.9417 76.9114 66.8743 76.8657C66.8069 76.82 66.7595 76.7503 66.742 76.6708C66.7244 76.5913 66.738 76.5081 66.7799 76.4382C67.4824 75.3975 67.8566 74.1699 67.854 72.9142C67.8201 71.5003 67.7776 70.061 67.7394 68.6217C67.4974 59.8795 67.2469 50.8402 67.8583 45.656C67.8482 43.9893 67.179 42.3943 65.9969 41.2194C64.8148 40.0444 63.2157 39.3849 61.549 39.3849C53.7239 39.869 42.8079 39.6397 33.1911 39.3849C31.5255 39.3916 29.93 40.0563 28.7522 41.2341C27.5744 42.4119 26.9098 44.0074 26.9031 45.673C27.5527 52.823 27.5527 61.4887 26.9031 72.9142C26.912 74.5787 27.5784 76.1722 28.757 77.3476C29.9356 78.523 31.5309 79.1851 33.1954 79.1895C39.8444 78.9688 48.319 78.9688 60.6659 79.1895C60.7503 79.1895 60.8313 79.2231 60.891 79.2828C60.9507 79.3425 60.9843 79.4235 60.9843 79.508C60.9843 79.5924 60.9507 79.6734 60.891 79.7331C60.8313 79.7929 60.7503 79.8264 60.6659 79.8264L60.6574 79.8391Z" fill="#0F2064"/>
<path d="M109.62 80.2766C109.556 80.2766 109.494 80.2573 109.441 80.2212C109.388 80.1852 109.347 80.134 109.324 80.0744C109.3 80.0148 109.296 79.9496 109.31 79.8872C109.324 79.8248 109.357 79.7681 109.404 79.7246C114.63 74.8674 124.616 66.7112 132.794 66.6602C132.847 66.6603 132.898 66.6732 132.945 66.6975C132.991 66.7219 133.031 66.7572 133.061 66.8003C133.932 68.1081 134.781 68.6982 135.991 68.8383C136.84 68.9402 137.889 68.8383 139.511 67.4584C139.549 67.4268 139.593 67.4042 139.641 67.3924C139.689 67.3807 139.739 67.38 139.787 67.3905C145.578 68.6855 150.338 71.6363 153.556 75.9458C153.607 76.0134 153.628 76.0983 153.617 76.1819C153.605 76.2655 153.56 76.341 153.492 76.3917C153.425 76.4423 153.34 76.4641 153.256 76.4521C153.173 76.4402 153.097 76.3955 153.047 76.328C149.947 72.1883 145.37 69.3266 139.8 68.0444C138.055 69.4879 136.857 69.5771 135.919 69.471C134.564 69.3139 133.575 68.6643 132.628 67.3013C124.697 67.4627 114.957 75.4321 109.837 80.1917C109.778 80.2463 109.701 80.2766 109.62 80.2766V80.2766Z" fill="#0F2064"/>
<path d="M131.002 66.9784C131.24 67.9507 132.331 71.3686 136.399 71.3474C140.802 71.3262 142.462 68.2607 142.126 67.5898C141.791 66.919 139.931 65.917 139.579 66.1378C139.226 66.3586 136.704 71.4833 133.308 66.5199C132.841 65.8109 130.883 66.4859 131.002 66.9784Z" fill="#EDA19B"/>
<path d="M133.134 65.9849C133.092 65.9833 133.051 65.9734 133.013 65.9559C132.975 65.9383 132.94 65.9135 132.912 65.8827C132.884 65.8519 132.862 65.8159 132.847 65.7766C132.833 65.7373 132.826 65.6956 132.828 65.6537C132.864 65.0188 132.864 64.3823 132.828 63.7474C132.82 63.6644 132.845 63.5818 132.898 63.5171C132.95 63.4525 133.026 63.411 133.109 63.4016C133.192 63.3921 133.275 63.4155 133.341 63.4666C133.406 63.5178 133.449 63.5926 133.461 63.6752C133.501 64.3412 133.501 65.009 133.461 65.675C133.459 65.7168 133.45 65.758 133.433 65.7962C133.416 65.8344 133.392 65.8689 133.361 65.8977C133.331 65.9265 133.295 65.949 133.256 65.964C133.217 65.9789 133.175 65.986 133.134 65.9849V65.9849Z" fill="#0F2064"/>
<path d="M125.669 47.3755C125.601 47.3758 125.534 47.3541 125.479 47.3136C125.424 47.273 125.384 47.2159 125.364 47.1505C124.939 45.7536 124.782 42.8113 126.96 40.6671C127.021 40.6113 127.101 40.5814 127.184 40.5835C127.266 40.5857 127.345 40.6199 127.403 40.6788C127.461 40.7378 127.493 40.8169 127.494 40.8995C127.494 40.982 127.463 41.0616 127.406 41.1214C125.44 43.0575 125.606 45.7918 125.971 46.9637C125.988 47.0122 125.993 47.0641 125.986 47.115C125.979 47.1659 125.959 47.2142 125.929 47.256C125.899 47.2977 125.859 47.3315 125.813 47.3545C125.768 47.3776 125.717 47.3892 125.665 47.3883L125.669 47.3755Z" fill="#0F2064"/>
<path d="M129.686 47.2482C129.609 47.2479 129.535 47.2197 129.477 47.169C129.42 47.1183 129.382 47.0484 129.372 46.9722C129.036 44.3823 129.605 42.0938 130.82 41.147C130.887 41.102 130.968 41.0841 131.048 41.0968C131.127 41.1095 131.199 41.1519 131.248 41.2155C131.298 41.279 131.322 41.359 131.315 41.4392C131.307 41.5195 131.27 41.5941 131.21 41.648C130.183 42.4462 129.699 44.5521 130.005 46.8873C130.01 46.9289 130.007 46.971 129.996 47.0115C129.985 47.0519 129.966 47.0898 129.941 47.1229C129.915 47.156 129.883 47.1838 129.847 47.2046C129.81 47.2253 129.77 47.2387 129.729 47.244L129.686 47.2482Z" fill="#0F2064"/>
<path d="M133.826 47.2483C133.77 47.2486 133.715 47.2342 133.667 47.2066C133.618 47.1791 133.578 47.1393 133.55 47.0912C132.756 45.7411 132.938 42.7223 134.225 41.3679C134.284 41.3216 134.358 41.2979 134.433 41.3009C134.508 41.3039 134.58 41.3335 134.636 41.3844C134.691 41.4353 134.727 41.5042 134.736 41.5789C134.746 41.6536 134.729 41.7293 134.688 41.7924C133.592 42.9473 133.414 45.6137 134.097 46.7516C134.137 46.8235 134.146 46.9078 134.125 46.9868C134.104 47.0659 134.053 47.1337 133.983 47.1761C133.938 47.2144 133.884 47.2394 133.826 47.2483V47.2483Z" fill="#0F2064"/>
<path d="M136.513 47.8468C136.459 47.8467 136.405 47.8326 136.357 47.8059C136.31 47.7791 136.27 47.7405 136.242 47.6939C135.49 46.4626 135.456 43.8005 136.543 42.3442C136.568 42.3107 136.6 42.2825 136.636 42.2612C136.672 42.2399 136.711 42.2259 136.753 42.22C136.794 42.2141 136.836 42.2164 136.877 42.2268C136.917 42.2371 136.955 42.2554 136.989 42.2805C137.022 42.3056 137.05 42.337 137.072 42.373C137.093 42.409 137.107 42.4488 137.113 42.4902C137.119 42.5316 137.117 42.5738 137.106 42.6143C137.096 42.6548 137.078 42.6928 137.053 42.7263C136.135 43.9576 136.14 46.3055 136.785 47.3627C136.814 47.411 136.83 47.4662 136.831 47.5227C136.832 47.5792 136.818 47.6349 136.791 47.6842C136.763 47.7335 136.723 47.7745 136.674 47.8031C136.625 47.8316 136.57 47.8467 136.513 47.8468Z" fill="#0F2064"/>
<path d="M139.328 65.6495C139.254 65.6498 139.182 65.6241 139.124 65.5768C139.067 65.5295 139.028 65.4636 139.014 65.3905C138.029 60.147 139.536 55.0265 139.6 54.8142C139.624 54.7359 139.677 54.6698 139.748 54.6295C139.819 54.5892 139.903 54.5778 139.982 54.5977C141.209 54.9076 142.279 54.1051 142.797 53.1711C143.192 52.4578 143.396 51.3708 142.657 50.6618C142.496 50.4837 142.3 50.3417 142.08 50.2451C141.861 50.1485 141.623 50.0995 141.383 50.1013C140.787 50.1846 140.241 50.4782 139.842 50.9293C139.813 50.9635 139.776 50.991 139.735 51.0101C139.694 51.0291 139.65 51.0392 139.604 51.0397V51.0397C139.559 51.0397 139.515 51.0303 139.474 51.012C139.433 50.9937 139.396 50.967 139.367 50.9335C138.636 50.0843 137.838 46.9127 138.84 43.4991C138.852 43.4589 138.871 43.4215 138.897 43.3889C138.924 43.3563 138.956 43.3291 138.993 43.309C139.029 43.2889 139.07 43.2762 139.111 43.2717C139.153 43.2671 139.195 43.2708 139.235 43.2825C139.275 43.2942 139.313 43.3138 139.345 43.3399C139.378 43.3661 139.405 43.3985 139.425 43.4351C139.445 43.4718 139.458 43.5121 139.462 43.5536C139.467 43.5952 139.463 43.6373 139.451 43.6774C138.577 46.6495 139.159 49.2649 139.66 50.2245C140.127 49.7927 140.724 49.5271 141.358 49.4687C141.688 49.4601 142.016 49.5214 142.32 49.6488C142.625 49.7761 142.899 49.9665 143.124 50.2075C143.944 51.0015 144.045 52.2879 143.379 53.4853C142.784 54.5552 141.579 55.4808 140.161 55.2812C139.863 56.4191 138.84 60.8687 139.668 65.2801C139.676 65.3214 139.676 65.3639 139.667 65.4051C139.659 65.4462 139.642 65.4853 139.618 65.52C139.595 65.5548 139.564 65.5845 139.529 65.6074C139.494 65.6304 139.455 65.6461 139.413 65.6538L139.328 65.6495Z" fill="#0F2064"/>
<path d="M133.923 49.6812C133.851 49.6811 133.782 49.6567 133.725 49.612C133.669 49.5673 133.63 49.5049 133.613 49.4349C133.57 49.1477 133.459 48.8751 133.289 48.6395C133.119 48.4039 132.896 48.2123 132.637 48.0805C132.462 48.0054 132.273 47.9724 132.083 47.9842C131.894 47.996 131.709 48.0522 131.546 48.1484C131.51 48.1699 131.47 48.184 131.428 48.1901C131.387 48.1962 131.345 48.194 131.304 48.1838C131.263 48.1735 131.225 48.1554 131.192 48.1304C131.158 48.1054 131.13 48.074 131.108 48.038C131.087 48.0021 131.073 47.9622 131.067 47.9208C131.061 47.8793 131.063 47.8371 131.073 47.7965C131.083 47.7559 131.101 47.7177 131.126 47.6841C131.151 47.6505 131.183 47.6222 131.219 47.6007C131.469 47.453 131.75 47.3664 132.04 47.348C132.33 47.3296 132.62 47.3798 132.887 47.4946C133.239 47.6642 133.545 47.9158 133.779 48.2284C134.014 48.541 134.169 48.9052 134.233 49.2905C134.252 49.3727 134.238 49.4591 134.193 49.5308C134.149 49.6024 134.078 49.6535 133.995 49.6727L133.923 49.6812Z" fill="#0F2064"/>
<path d="M125.101 49.2734H125.067C125.025 49.2692 124.984 49.2567 124.947 49.2366C124.91 49.2166 124.877 49.1894 124.851 49.1566C124.824 49.1238 124.805 49.0861 124.793 49.0457C124.781 49.0052 124.777 48.9629 124.782 48.921C124.823 48.5257 124.989 48.154 125.258 47.861C125.526 47.5681 125.882 47.3695 126.272 47.2949C126.675 47.1898 127.101 47.2112 127.491 47.3563C127.882 47.5014 128.218 47.763 128.455 48.1058C128.495 48.1777 128.506 48.2624 128.485 48.3421C128.464 48.4217 128.413 48.4902 128.343 48.5331C128.272 48.5759 128.188 48.5899 128.108 48.572C128.027 48.554 127.957 48.5057 127.911 48.437C127.743 48.2095 127.51 48.038 127.242 47.9449C126.975 47.8517 126.686 47.8412 126.413 47.9147C126.152 47.9597 125.914 48.0887 125.734 48.2819C125.553 48.475 125.441 48.7219 125.415 48.9847C125.407 49.0632 125.371 49.1361 125.313 49.1895C125.255 49.2428 125.179 49.2727 125.101 49.2734V49.2734Z" fill="#0F2064"/>
<path d="M133.473 64.0319C132.864 64.033 132.258 63.9472 131.673 63.7772C130.847 63.5288 130.079 63.1191 129.413 62.5717C128.747 62.0244 128.196 61.3503 127.792 60.5886C126.069 57.4297 125.648 52.3857 125.992 48.7894C125.993 48.7458 126.003 48.7029 126.022 48.6634C126.04 48.6238 126.067 48.5884 126.099 48.5595C126.132 48.5305 126.17 48.5086 126.212 48.495C126.253 48.4815 126.297 48.4766 126.34 48.4807C126.384 48.4848 126.426 48.4977 126.464 48.5188C126.502 48.5398 126.536 48.5685 126.562 48.603C126.589 48.6375 126.608 48.6772 126.619 48.7195C126.63 48.7618 126.632 48.8058 126.625 48.8489C126.289 52.3474 126.688 57.2429 128.349 60.2786C128.703 60.9616 129.191 61.5669 129.783 62.059C130.375 62.551 131.059 62.92 131.795 63.1442C132.532 63.3684 133.305 63.4434 134.071 63.3647C134.837 63.286 135.579 63.0553 136.254 62.686C136.329 62.6455 136.416 62.6361 136.497 62.66C136.578 62.6839 136.647 62.7391 136.687 62.8134C136.728 62.8877 136.737 62.9751 136.713 63.0563C136.69 63.1375 136.634 63.2059 136.56 63.2465C135.613 63.7629 134.552 64.033 133.473 64.0319V64.0319Z" fill="#0F2064"/>
<path d="M132.166 53.736C132.557 53.736 132.875 53.2931 132.875 52.7467C132.875 52.2003 132.557 51.7574 132.166 51.7574C131.774 51.7574 131.457 52.2003 131.457 52.7467C131.457 53.2931 131.774 53.736 132.166 53.736Z" fill="#0F2064"/>
<path d="M127.801 53.9524C128.193 53.9524 128.51 53.5095 128.51 52.9631C128.51 52.4167 128.193 51.9738 127.801 51.9738C127.409 51.9738 127.092 52.4167 127.092 52.9631C127.092 53.5095 127.409 53.9524 127.801 53.9524Z" fill="#0F2064"/>
<path d="M130.302 57.8925H130.276C130.089 57.8838 129.906 57.8363 129.739 57.7529C129.572 57.6696 129.423 57.5523 129.304 57.4085C128.561 56.5084 128.794 54.4746 129.117 51.6639L129.159 51.2733C129.164 51.2315 129.176 51.191 129.196 51.1542C129.216 51.1173 129.244 51.0849 129.276 51.0588C129.309 51.0327 129.347 51.0134 129.388 51.0021C129.428 50.9908 129.47 50.9877 129.512 50.993C129.596 51.0026 129.672 51.0451 129.725 51.1112C129.777 51.1773 129.802 51.2616 129.792 51.3454L129.75 51.7361C129.457 54.2836 129.227 56.3131 129.796 57.0051C129.862 57.0829 129.943 57.1459 130.034 57.1898C130.126 57.2337 130.226 57.2576 130.327 57.2599C130.411 57.2633 130.491 57.3 130.548 57.3621C130.606 57.4243 130.636 57.5066 130.633 57.5911C130.629 57.6755 130.593 57.7552 130.53 57.8125C130.468 57.8698 130.386 57.9001 130.302 57.8968V57.8925Z" fill="#0F2064"/>
<path d="M133.185 61.5141C131.864 61.5141 130.845 60.1681 130.323 58.8562C130.294 58.7968 130.285 58.73 130.296 58.6651C130.307 58.6002 130.338 58.5403 130.385 58.4938C130.432 58.4472 130.491 58.4162 130.556 58.4051C130.621 58.394 130.688 58.4032 130.747 58.4316C131.983 58.9326 134.407 57.9094 134.857 57.0984C134.887 57.0439 134.933 56.9994 134.988 56.9707C135.043 56.942 135.105 56.9303 135.167 56.9371C135.229 56.943 135.287 56.9666 135.335 57.005C135.384 57.0435 135.42 57.0951 135.439 57.1536C135.864 58.4741 135.817 60.6904 133.898 61.3782C133.67 61.4647 133.428 61.5107 133.185 61.5141V61.5141ZM131.185 59.1916C131.609 59.9771 132.458 61.2169 133.677 60.788C134.896 60.3592 135.142 59.0005 134.951 57.9391C133.887 58.7954 132.55 59.2401 131.185 59.1916V59.1916Z" fill="#0F2064"/>
<path d="M112.465 91.8931H112.393C112.311 91.874 112.239 91.8229 112.195 91.7513C112.15 91.6796 112.136 91.5932 112.155 91.511C113.081 87.6006 115.208 84.6752 116.953 82.5608C118.336 80.9206 119.466 79.0832 120.307 77.1092C120.335 77.0292 120.393 76.9635 120.469 76.9265C120.545 76.8895 120.632 76.8842 120.712 76.9118C120.792 76.9394 120.858 76.9976 120.895 77.0736C120.932 77.1497 120.937 77.2373 120.91 77.3172C120.485 78.523 119.144 80.9134 117.445 82.9684C115.747 85.0234 113.671 87.8808 112.775 91.6596C112.756 91.7273 112.716 91.7868 112.66 91.8291C112.604 91.8713 112.535 91.8938 112.465 91.8931V91.8931Z" fill="#0F2064"/>
<path d="M127.805 95.4002C127.746 95.4002 127.688 95.3837 127.638 95.3526C127.587 95.3215 127.547 95.277 127.52 95.2241C127.494 95.1712 127.483 95.112 127.488 95.0531C127.493 94.9942 127.515 94.938 127.55 94.8907C129.147 92.7435 130.856 90.6828 132.671 88.7172C133.805 87.4986 134.876 86.2232 135.881 84.896C138.36 81.5673 141.209 78.6843 142.967 77.729C143.041 77.6885 143.129 77.6791 143.21 77.703C143.25 77.7149 143.288 77.7345 143.32 77.7608C143.353 77.7871 143.38 77.8196 143.4 77.8564C143.42 77.8932 143.433 77.9336 143.437 77.9753C143.442 78.017 143.438 78.0591 143.426 78.0993C143.414 78.1395 143.395 78.177 143.368 78.2097C143.342 78.2423 143.309 78.2694 143.273 78.2895C141.613 79.1939 138.781 82.064 136.39 85.2781C135.291 86.7557 134.267 87.9105 133.142 89.1333C131.336 91.0836 129.635 93.1287 128.047 95.26C128.02 95.3003 127.984 95.3338 127.942 95.3581C127.9 95.3824 127.853 95.3968 127.805 95.4002Z" fill="#0F2064"/>
<path d="M129.941 96.1134C129.913 96.1172 129.884 96.1172 129.856 96.1134C126.829 95.2642 119.012 93.1413 114.193 92.1648C113.161 91.9352 112.118 91.7609 111.068 91.6425L110.155 91.5703C108.195 91.3873 106.226 91.3164 104.258 91.358C104.216 91.3594 104.174 91.3526 104.135 91.3379C104.096 91.3232 104.06 91.3009 104.03 91.2723C103.999 91.2437 103.974 91.2094 103.957 91.1713C103.94 91.1332 103.93 91.092 103.929 91.0502C103.927 91.0084 103.934 90.9667 103.949 90.9276C103.964 90.8884 103.986 90.8525 104.015 90.8219C104.043 90.7914 104.077 90.7668 104.116 90.7495C104.154 90.7322 104.195 90.7226 104.237 90.7212C106.229 90.6807 108.222 90.753 110.206 90.9377L111.123 91.0099C112.198 91.1293 113.265 91.3065 114.32 91.5406C119.156 92.5426 126.99 94.6401 130.03 95.502C130.103 95.5233 130.166 95.5703 130.208 95.6342C130.249 95.6982 130.267 95.775 130.256 95.8506C130.246 95.9262 130.209 95.9956 130.152 96.0462C130.095 96.0968 130.021 96.1251 129.945 96.1261L129.941 96.1134Z" fill="#0F2064"/>
<path d="M95.1422 97.4084C95.0877 97.4085 95.034 97.3946 94.9864 97.368C94.9388 97.3415 94.8988 97.3031 94.8703 97.2567C94.8417 97.2102 94.8256 97.1572 94.8234 97.1028C94.8212 97.0483 94.833 96.9942 94.8577 96.9456C95.2823 96.1473 95.554 95.5614 95.7706 95.1241C96.3268 93.9905 96.4287 93.7867 96.8787 93.5064C97.4647 93.1371 101.931 91.3326 103.311 91.0736C103.391 91.064 103.472 91.0851 103.537 91.1328C103.602 91.1804 103.647 91.2509 103.662 91.3302C103.677 91.4094 103.661 91.4914 103.618 91.5596C103.575 91.6279 103.508 91.6772 103.43 91.6977C102.11 91.944 97.6812 93.7485 97.2226 94.0414C96.9339 94.224 96.9042 94.2749 96.3438 95.4043C96.1272 95.8289 95.8385 96.4318 95.4267 97.2343C95.4 97.2868 95.3593 97.3308 95.309 97.3615C95.2588 97.3923 95.2011 97.4085 95.1422 97.4084V97.4084Z" fill="#0F2064"/>
<path d="M96.3987 100.028C96.3444 100.028 96.2909 100.015 96.2433 99.989C96.1956 99.963 96.1554 99.9252 96.1265 99.8793C96.0976 99.8333 96.0808 99.7807 96.078 99.7265C96.0751 99.6723 96.0861 99.6182 96.11 99.5695C97.7192 96.003 99.3581 94.7165 99.426 94.6613C99.493 94.6095 99.5778 94.5864 99.6618 94.5972C99.7458 94.6079 99.8221 94.6516 99.8739 94.7186C99.9257 94.7856 99.9488 94.8705 99.938 94.9545C99.9273 95.0385 99.8836 95.1148 99.8166 95.1666C99.8166 95.1666 98.2244 96.4403 96.6917 99.837C96.6668 99.8939 96.6258 99.9424 96.5738 99.9763C96.5217 100.01 96.4609 100.028 96.3987 100.028V100.028Z" fill="#0F2064"/>
<path d="M99.0566 100.962C98.9736 100.962 98.8939 100.93 98.8344 100.872C98.7749 100.814 98.7404 100.735 98.7382 100.652C98.6447 99.095 99.1049 97.555 100.037 96.3044C100.064 96.2718 100.096 96.2447 100.133 96.2246C100.169 96.2045 100.21 96.1918 100.251 96.1872C100.293 96.1827 100.335 96.1864 100.375 96.1981C100.415 96.2099 100.453 96.2294 100.485 96.2556C100.518 96.2818 100.545 96.3142 100.565 96.3509C100.585 96.3876 100.598 96.4279 100.603 96.4694C100.607 96.511 100.603 96.5531 100.592 96.5933C100.58 96.6335 100.56 96.6709 100.534 96.7035C99.6985 97.8359 99.2882 99.2263 99.3751 100.631C99.3762 100.673 99.3691 100.714 99.3541 100.753C99.3391 100.793 99.3166 100.828 99.2878 100.859C99.2591 100.889 99.2246 100.913 99.1864 100.93C99.1481 100.947 99.1069 100.957 99.0651 100.958L99.0566 100.962Z" fill="#0F2064"/>
<path d="M101.524 100.962C101.44 100.962 101.359 100.929 101.3 100.87C101.24 100.812 101.206 100.732 101.205 100.648C101.205 99.7054 101.286 97.6292 101.808 96.5253C101.844 96.4487 101.909 96.3896 101.989 96.3609C102.068 96.3322 102.156 96.3364 102.233 96.3724C102.309 96.4084 102.368 96.4734 102.397 96.553C102.426 96.6327 102.421 96.7204 102.385 96.797C101.961 97.7183 101.825 99.6374 101.842 100.618C101.843 100.66 101.835 100.702 101.819 100.74C101.804 100.779 101.781 100.815 101.752 100.845C101.723 100.875 101.688 100.899 101.649 100.915C101.611 100.932 101.57 100.94 101.528 100.941L101.524 100.962Z" fill="#0F2064"/>
<path d="M103.82 101.102H103.778C103.736 101.096 103.696 101.083 103.66 101.061C103.624 101.04 103.592 101.012 103.567 100.978C103.542 100.945 103.523 100.907 103.513 100.866C103.502 100.825 103.5 100.783 103.506 100.741C103.825 98.4359 104.118 97.6037 104.678 97.4296C104.756 97.4115 104.839 97.4237 104.909 97.4639C104.978 97.5041 105.03 97.5693 105.054 97.6462C105.078 97.7232 105.071 97.8062 105.036 97.8787C105.001 97.9512 104.94 98.0076 104.865 98.0367C104.729 98.0792 104.44 98.4953 104.135 100.826C104.124 100.902 104.087 100.972 104.029 101.023C103.971 101.074 103.897 101.102 103.82 101.102Z" fill="#0F2064"/>
<path d="M123.33 105.28C123.268 105.28 123.208 105.263 123.156 105.229C120.549 103.531 116.847 101.726 114.201 100.533C112.928 99.9602 111.972 99.5568 111.654 99.4209C109.374 100.27 108.071 99.2723 107.289 98.6737L107.098 98.5293C106.461 98.0623 105.442 98.2788 104.436 98.5803C104.396 98.5923 104.354 98.5962 104.312 98.5919C104.27 98.5876 104.23 98.5752 104.193 98.5553C104.156 98.5354 104.124 98.5084 104.097 98.4759C104.071 98.4434 104.051 98.406 104.039 98.3659C104.027 98.3257 104.023 98.2836 104.027 98.2419C104.032 98.2002 104.044 98.1598 104.064 98.123C104.084 98.0861 104.111 98.0535 104.143 98.0271C104.176 98.0006 104.213 97.9809 104.254 97.9689C105.417 97.6207 106.61 97.3872 107.476 98.0156L107.68 98.1684C108.414 98.7289 109.518 99.578 111.544 98.7798C111.62 98.7491 111.705 98.7491 111.781 98.7798C111.781 98.7798 112.894 99.2426 114.465 99.9474C117.131 101.149 120.867 102.949 123.508 104.69C123.566 104.727 123.61 104.782 123.634 104.847C123.658 104.912 123.66 104.982 123.641 105.048C123.621 105.114 123.581 105.172 123.525 105.213C123.47 105.254 123.403 105.276 123.334 105.276L123.33 105.28Z" fill="#0F2064"/>
<path d="M102.768 91.048C102.72 91.0484 102.672 91.0379 102.629 91.0173C102.585 90.9967 102.547 90.9665 102.517 90.9291C99.3412 86.955 97.282 79.89 95.6006 73.6189C95.2864 72.4301 94.985 71.288 94.7005 70.2223C94.3566 68.9485 94.0764 67.9295 93.8216 67.0761C93.8131 67.0036 93.8298 66.9304 93.8688 66.8688C93.9078 66.8071 93.9668 66.7607 94.0359 66.7373C94.105 66.7139 94.1801 66.715 94.2485 66.7404C94.3169 66.7657 94.3746 66.8138 94.4118 66.8765C94.6708 67.7257 94.951 68.7447 95.2949 70.0439C95.5836 71.1139 95.8851 72.256 96.1993 73.4406C97.9825 80.1278 100.042 86.8234 102.993 90.5173C103.03 90.5642 103.054 90.6209 103.061 90.6808C103.068 90.7407 103.057 90.8012 103.031 90.8555C103.005 90.9097 102.964 90.9554 102.913 90.9872C102.862 91.0191 102.802 91.0357 102.742 91.0353L102.768 91.048Z" fill="#0F2064"/>
<path d="M97.282 65.3355C97.2325 65.3355 97.1838 65.324 97.1395 65.3019C97.0953 65.2798 97.0569 65.2477 97.0272 65.2082C96.6298 64.6994 96.3919 64.0844 96.3436 63.4406C96.2952 62.7968 96.4385 62.1531 96.7555 61.5907C95.7152 61.4548 93.5244 61.1194 92.6285 60.4401C92.0384 59.99 92.0893 59.5442 92.17 59.3192C92.5097 58.4021 94.5222 57.9096 97.2947 58.0667C97.3365 58.0692 97.3774 58.0799 97.4151 58.0982C97.4528 58.1166 97.4865 58.1421 97.5143 58.1735C97.5421 58.2048 97.5634 58.2413 97.5771 58.2809C97.5908 58.3205 97.5965 58.3624 97.594 58.4042C97.5915 58.446 97.5808 58.487 97.5625 58.5246C97.5442 58.5623 97.5186 58.596 97.4872 58.6238C97.4559 58.6516 97.4194 58.6729 97.3798 58.6866C97.3402 58.7003 97.2983 58.7061 97.2565 58.7036C94.1655 58.5252 92.8918 59.1918 92.7644 59.5527C92.7135 59.6928 92.896 59.8627 93.0107 59.9476C93.5796 60.3722 94.9637 60.7373 97.1249 61.009L97.3202 61.0345C97.3757 61.0425 97.4281 61.065 97.4722 61.0997C97.5162 61.1344 97.5503 61.1802 97.571 61.2323C97.5917 61.2845 97.5982 61.3411 97.59 61.3966C97.5817 61.4521 97.5589 61.5044 97.524 61.5483C97.1645 62.0206 96.9698 62.5978 96.9698 63.1914C96.9698 63.785 97.1645 64.3622 97.524 64.8345C97.5594 64.8818 97.5811 64.9381 97.5864 64.997C97.5917 65.0559 97.5805 65.1151 97.554 65.168C97.5276 65.2209 97.4869 65.2654 97.4366 65.2965C97.3863 65.3276 97.3284 65.344 97.2692 65.344L97.282 65.3355Z" fill="#0F2064"/>
<path d="M111.985 87.3032C111.902 87.3032 111.822 87.2709 111.763 87.213C111.703 87.1551 111.669 87.0762 111.667 86.9933C111.593 85.8315 111.349 84.6869 110.941 83.5966C110.665 82.8791 109.667 80.9684 108.427 78.5568C107.153 76.0603 105.523 72.9481 104.181 70.1586C103.685 69.1226 103.239 68.1461 102.857 67.2587L102.797 67.1186C102.118 65.5306 100.721 61.5693 100.33 59.2893C100.008 57.3914 95.7492 56.2238 92.9299 56.1431C92.8881 56.142 92.8469 56.1327 92.8087 56.1157C92.7705 56.0986 92.736 56.0742 92.7072 56.0439C92.6784 56.0135 92.6559 55.9778 92.641 55.9387C92.626 55.8996 92.6189 55.858 92.62 55.8162C92.6205 55.7742 92.6295 55.7327 92.6463 55.6943C92.6631 55.6558 92.6875 55.6211 92.718 55.5922C92.7485 55.5633 92.7844 55.5408 92.8238 55.526C92.8631 55.5113 92.9049 55.5045 92.9469 55.5062C95.9402 55.5912 100.555 56.8182 100.955 59.1789C101.303 61.2211 102.623 65.0933 103.375 66.8553L103.434 66.9954C103.816 67.8828 104.258 68.8509 104.75 69.8784C106.075 72.6594 107.684 75.7631 108.996 78.2596C110.308 80.7561 111.251 82.6158 111.544 83.3546C111.98 84.5119 112.24 85.7287 112.312 86.9635C112.313 87.0054 112.306 87.047 112.291 87.0861C112.276 87.1251 112.254 87.1609 112.225 87.1912C112.196 87.2216 112.162 87.246 112.123 87.263C112.085 87.28 112.044 87.2894 112.002 87.2905L111.985 87.3032Z" fill="#0F2064"/>
<path d="M92.7134 67.4542C91.9201 67.4386 91.1424 67.2318 90.4461 66.8513C90.407 66.8333 90.3719 66.8075 90.343 66.7755C90.3142 66.7436 90.2921 66.7061 90.2781 66.6653C90.2641 66.6246 90.2585 66.5814 90.2617 66.5384C90.2649 66.4955 90.2768 66.4536 90.2966 66.4154C90.3165 66.3771 90.3439 66.3433 90.3772 66.316C90.4104 66.2886 90.4489 66.2683 90.4903 66.2563C90.5317 66.2442 90.575 66.2407 90.6178 66.2459C90.6606 66.2511 90.7018 66.265 90.7391 66.2866C92.6073 67.2504 94.2377 66.9065 95.8681 65.2081C95.9277 65.1647 96.0006 65.1433 96.0743 65.1476C96.1479 65.1519 96.2178 65.1817 96.272 65.2318C96.3261 65.282 96.3612 65.3494 96.3711 65.4225C96.3811 65.4956 96.3654 65.5699 96.3266 65.6327C95.176 66.8768 93.9872 67.4542 92.7134 67.4542Z" fill="#0F2064"/>
<path d="M86.4467 54.1391C86.3671 54.1395 86.2903 54.11 86.2314 54.0566C86.1725 54.0032 86.1356 53.9296 86.1282 53.8504C86.0603 53.0819 86.5528 52.6404 86.9774 52.288C87.402 51.9356 87.644 51.6893 87.6058 51.2647C87.5676 50.8401 87.2788 50.6491 86.8076 50.3731C86.3363 50.0971 85.7673 49.7574 85.6952 48.9889C85.623 48.2205 86.1197 47.7789 86.5443 47.4307C86.9689 47.0826 87.2109 46.8321 87.1727 46.4075C87.1718 46.3272 87.2013 46.2496 87.2552 46.1901C87.3091 46.1307 87.3835 46.0938 87.4634 46.0868C87.5434 46.0798 87.623 46.1033 87.6864 46.1525C87.7498 46.2017 87.7923 46.2731 87.8053 46.3523C87.8733 47.1208 87.3807 47.5624 86.9562 47.9105C86.5316 48.2587 86.2896 48.5092 86.3278 48.9338C86.366 49.3583 86.6547 49.5494 87.126 49.8254C87.5973 50.1014 88.1662 50.441 88.2384 51.2095C88.3106 51.978 87.8138 52.4196 87.3892 52.772C86.9646 53.1244 86.7226 53.3706 86.7609 53.7952C86.7679 53.8791 86.7415 53.9623 86.6874 54.0267C86.6333 54.0912 86.5559 54.1316 86.4721 54.1391H86.4467Z" fill="#0F2064"/>
<path d="M83.3725 53.1244C83.2916 53.1246 83.2137 53.094 83.1545 53.0388C83.0954 52.9836 83.0595 52.908 83.0541 52.8272C83.0467 52.6323 83.0842 52.4383 83.1638 52.2601C83.2433 52.082 83.3626 51.9245 83.5126 51.7997C83.7079 51.6002 83.8098 51.4855 83.7929 51.2605C83.7759 51.0355 83.6612 50.9378 83.4405 50.768C83.2699 50.6711 83.1258 50.5337 83.021 50.3679C82.9162 50.2021 82.8539 50.013 82.8396 49.8173C82.8253 49.6216 82.8595 49.4255 82.9391 49.2462C83.0188 49.0669 83.1414 48.91 83.2961 48.7894C83.4957 48.5856 83.5933 48.4753 83.5763 48.2545C83.5733 48.2127 83.5785 48.1706 83.5916 48.1308C83.6048 48.091 83.6257 48.0542 83.6531 48.0225C83.6805 47.9907 83.7139 47.9647 83.7513 47.9459C83.7888 47.927 83.8296 47.9158 83.8714 47.9127C83.9132 47.9096 83.9552 47.9148 83.995 47.928C84.0348 47.9412 84.0717 47.962 84.1034 47.9894C84.1351 48.0168 84.1612 48.0502 84.18 48.0877C84.1989 48.1252 84.2101 48.166 84.2132 48.2078C84.2206 48.4027 84.183 48.5967 84.1035 48.7749C84.024 48.953 83.9047 49.1105 83.7546 49.2353C83.5551 49.4391 83.4574 49.5495 83.4744 49.7702C83.4914 49.991 83.606 50.0929 83.8268 50.2627C83.9974 50.3596 84.1415 50.497 84.2463 50.6629C84.3511 50.8287 84.4134 51.0178 84.4277 51.2135C84.442 51.4091 84.4078 51.6053 84.3281 51.7845C84.2485 51.9638 84.1259 52.1207 83.9712 52.2413C83.7759 52.4409 83.674 52.5555 83.691 52.7805C83.6968 52.8643 83.6693 52.9471 83.6144 53.0107C83.5596 53.0743 83.4818 53.1137 83.398 53.1202L83.3725 53.1244Z" fill="#0F2064"/>
<path d="M90.166 52.5894C90.0851 52.5896 90.0071 52.5589 89.948 52.5037C89.8889 52.4485 89.8529 52.3729 89.8475 52.2922C89.8402 52.0972 89.8777 51.9032 89.9572 51.725C90.0367 51.5469 90.1561 51.3894 90.3061 51.2647C90.5014 51.0651 90.6033 50.9505 90.5863 50.7255C90.5693 50.5004 90.4547 50.4028 90.2339 50.2329C90.0633 50.1361 89.9192 49.9987 89.8144 49.8328C89.7096 49.667 89.6473 49.4779 89.633 49.2822C89.6188 49.0866 89.653 48.8904 89.7326 48.7112C89.8122 48.5319 89.9348 48.375 90.0896 48.2544C90.2891 48.0506 90.3868 47.9402 90.3698 47.7194C90.3667 47.6776 90.3719 47.6356 90.3851 47.5958C90.3983 47.556 90.4191 47.5191 90.4465 47.4874C90.4739 47.4557 90.5073 47.4296 90.5448 47.4108C90.5822 47.392 90.623 47.3807 90.6649 47.3776C90.7067 47.3746 90.7487 47.3798 90.7885 47.3929C90.8283 47.4061 90.8651 47.427 90.8969 47.4544C90.9286 47.4818 90.9546 47.5152 90.9735 47.5526C90.9923 47.5901 91.0036 47.6309 91.0067 47.6727C91.014 47.8677 90.9765 48.0617 90.897 48.2398C90.8175 48.418 90.6981 48.5755 90.5481 48.7002C90.3528 48.8998 90.2509 49.0144 90.2679 49.2352C90.2849 49.456 90.3995 49.5579 90.6203 49.7277C90.7909 49.8245 90.935 49.962 91.0398 50.1278C91.1446 50.2936 91.2069 50.4827 91.2211 50.6784C91.2354 50.874 91.2012 51.0702 91.1216 51.2495C91.042 51.4288 90.9194 51.5857 90.7646 51.7062C90.5693 51.9058 90.4674 52.0204 90.4844 52.2455C90.4903 52.3293 90.4628 52.412 90.4079 52.4756C90.353 52.5393 90.2752 52.5786 90.1915 52.5851L90.166 52.5894Z" fill="#0F2064"/>
<path d="M96.7341 102.503C96.6658 102.504 96.5991 102.482 96.5441 102.441C96.489 102.401 96.4485 102.344 96.4284 102.278L89.3549 79.6566C86.9602 79.3933 67.1832 77.0029 60.4536 76.0476C60.412 76.0418 60.372 76.0278 60.3359 76.0065C60.2998 75.9852 60.2682 75.957 60.243 75.9235C60.192 75.8558 60.17 75.7706 60.1818 75.6867C60.1937 75.6028 60.2383 75.5271 60.306 75.4761C60.3737 75.4252 60.4588 75.4032 60.5427 75.415C68.0026 76.4722 89.1214 79.0027 89.6224 79.0452C89.685 79.0506 89.7447 79.0745 89.7938 79.1138C89.8429 79.1531 89.8793 79.206 89.8984 79.266L97.0398 102.092C97.0651 102.172 97.0574 102.259 97.0184 102.334C96.9794 102.409 96.9123 102.465 96.8318 102.491C96.8001 102.5 96.7671 102.504 96.7341 102.503V102.503Z" fill="#0F2064"/>
<path d="M112.465 103.505H98.233C98.1485 103.505 98.0675 103.472 98.0078 103.412C97.9481 103.352 97.9146 103.271 97.9146 103.187C97.9146 103.103 97.9481 103.022 98.0078 102.962C98.0675 102.902 98.1485 102.869 98.233 102.869H111.051L103.956 99.5441C103.918 99.5262 103.884 99.5011 103.856 99.4701C103.828 99.4391 103.806 99.4028 103.792 99.3634C103.778 99.324 103.772 99.2822 103.773 99.2403C103.775 99.1984 103.786 99.1574 103.804 99.1195C103.821 99.0816 103.846 99.0475 103.877 99.0193C103.908 98.9911 103.945 98.9693 103.984 98.9551C104.024 98.9409 104.065 98.9346 104.107 98.9366C104.149 98.9386 104.19 98.9488 104.228 98.9666L112.618 102.898C112.684 102.929 112.737 102.981 112.769 103.046C112.801 103.111 112.81 103.186 112.794 103.257C112.778 103.327 112.739 103.391 112.682 103.436C112.625 103.481 112.555 103.506 112.482 103.505H112.465Z" fill="#0F2064"/>
<path d="M78.7745 93.3664L78.6386 93.2899C76.9255 92.3175 75.1464 91.4662 73.3143 90.7424L73.0044 90.6235L73.136 90.3178C73.6201 89.1969 75.1061 88.4454 76.8299 88.4454C78.9528 88.4454 80.6851 89.6258 80.6851 91.0779C80.6851 91.978 80.027 92.8059 78.9231 93.2899L78.7745 93.3664ZM73.8833 90.2924C75.5712 90.9759 77.2147 91.7644 78.8042 92.653C79.5854 92.2709 80.044 91.6935 80.044 91.0863C80.044 90.0037 78.5707 89.0908 76.8256 89.0908C75.5392 89.0951 74.3928 89.5748 73.879 90.2966L73.8833 90.2924Z" fill="#0F2064"/>
<path d="M64.3554 89.7404C64.2906 89.7401 64.2274 89.7201 64.1743 89.6829C64.1212 89.6457 64.0807 89.5932 64.0582 89.5324L59.494 77.3087C59.4647 77.2293 59.4681 77.1415 59.5036 77.0647C59.539 76.9878 59.6035 76.9282 59.6829 76.8989C59.7623 76.8697 59.85 76.8731 59.9269 76.9086C60.0037 76.944 60.0633 77.0085 60.0926 77.0879L64.6569 89.3116C64.6739 89.3516 64.6825 89.3947 64.6822 89.4381C64.6819 89.4816 64.6727 89.5245 64.6552 89.5643C64.6377 89.604 64.6123 89.6398 64.5804 89.6694C64.5486 89.6989 64.511 89.7217 64.4701 89.7362C64.4324 89.7447 64.3936 89.7462 64.3554 89.7404Z" fill="#0F2064"/>
<path d="M52.2166 70.3879C49.563 70.3879 45.538 70.2902 39.4112 70.0355L38.112 69.9845C38.0469 69.9835 37.9828 69.969 37.9236 69.942C37.8644 69.9149 37.8115 69.876 37.7681 69.8274C36.9784 69.0122 36.5495 62.8048 36.7024 58.0071C36.7024 57.9226 36.736 57.8416 36.7957 57.7819C36.8554 57.7222 36.9364 57.6886 37.0208 57.6886C37.1053 57.6886 37.1863 57.7222 37.246 57.7819C37.3057 57.8416 37.3393 57.9226 37.3393 58.0071C37.1609 63.4927 37.7214 68.6683 38.1884 69.3264L39.4325 69.3774C52.7856 69.9336 56.3223 69.7383 56.8828 69.4623C57.1163 68.7108 57.0357 63.7177 56.8361 59.2723C56.8344 59.2305 56.8409 59.1887 56.8554 59.1495C56.8698 59.1102 56.8919 59.0741 56.9203 59.0434C56.9487 59.0126 56.9829 58.9877 57.0209 58.9702C57.0589 58.9527 57.1 58.9428 57.1418 58.9411C57.184 58.9376 57.2265 58.9429 57.2666 58.9567C57.3067 58.9705 57.3435 58.9924 57.3746 59.0212C57.4058 59.0499 57.4306 59.0848 57.4475 59.1237C57.4645 59.1625 57.4731 59.2045 57.473 59.2468C57.5451 60.8433 57.8975 68.8467 57.4432 69.7807C57.3286 70.0525 57.1715 70.3879 52.2166 70.3879Z" fill="#EDA19B"/>
<path d="M56.0763 69.0421C56.0311 69.0416 55.9865 69.0316 55.9455 69.0125C55.9045 68.9935 55.868 68.9659 55.8385 68.9317C55.8045 68.8935 52.4716 65.1105 49.4952 62.8092C47.9158 61.5992 47.1176 61.4293 46.727 61.4973C46.4 61.5567 45.7759 61.8072 44.672 62.6819C42.6089 64.4214 40.7564 66.3964 39.1524 68.5666C39.1017 68.6341 39.0263 68.6788 38.9427 68.6908C38.8591 68.7027 38.7742 68.6809 38.7066 68.6303C38.639 68.5796 38.5944 68.5042 38.5824 68.4206C38.5705 68.3369 38.5922 68.252 38.6429 68.1844C40.2752 65.9763 42.1636 63.9696 44.2686 62.2063C45.2367 61.4378 46.0264 60.9963 46.6081 60.8901C47.3723 60.7585 48.4423 61.2255 49.8774 62.3252C52.9046 64.6434 56.2801 68.4944 56.314 68.5326C56.3537 68.5786 56.3794 68.6349 56.3881 68.695C56.3968 68.7551 56.3882 68.8164 56.3632 68.8717C56.3382 68.9271 56.2979 68.9741 56.2471 69.0073C56.1962 69.0405 56.137 69.0585 56.0763 69.0591V69.0421Z" fill="#EDA19B"/>
<path d="M115.904 108.358C115.86 108.359 115.817 108.35 115.777 108.333C112.478 106.868 108.036 103.586 107.85 103.446C107.782 103.396 107.736 103.321 107.723 103.237C107.711 103.154 107.732 103.068 107.782 103C107.832 102.932 107.907 102.887 107.991 102.874C108.074 102.861 108.159 102.882 108.228 102.932C108.274 102.966 112.8 106.329 116.036 107.747C116.103 107.776 116.159 107.827 116.193 107.893C116.227 107.958 116.238 108.033 116.223 108.105C116.208 108.177 116.168 108.242 116.111 108.288C116.053 108.334 115.982 108.359 115.908 108.358H115.904Z" fill="#0F2064"/>
<path d="M54.2973 51.0992C52.2805 53.2561 52.6839 56.3259 54.8408 58.3426C56.9976 60.3594 60.0886 60.5547 62.1054 58.4021C64.1221 56.2494 63.7188 53.1755 61.5619 51.1587C59.405 49.1419 56.3141 48.9424 54.2973 51.0992Z" fill="white"/>
<path d="M58.6279 60.2659C57.1256 60.231 55.6934 59.6235 54.6241 58.5676C53.5365 57.5903 52.8472 56.2465 52.688 54.793C52.624 54.0795 52.7137 53.3605 52.951 52.6845C53.1883 52.0085 53.5677 51.3912 54.0636 50.8741V50.8741C56.1356 48.6578 59.3794 48.6748 61.7783 50.9166C64.1772 53.1584 64.4107 56.3937 62.3345 58.61C61.8658 59.1286 61.294 59.5437 60.6558 59.8288C60.0176 60.1139 59.3269 60.2628 58.6279 60.2659ZM57.7787 49.8764C57.1677 49.8776 56.5636 50.0062 56.0051 50.254C55.4465 50.5019 54.9458 50.8635 54.5349 51.3157C54.0968 51.7649 53.7617 52.3041 53.5527 52.8957C53.3438 53.4874 53.266 54.1174 53.3249 54.7421C53.4717 56.0392 54.0897 57.2373 55.0614 58.109C57.1843 60.0961 60.0545 60.13 61.8547 58.1812C63.655 56.2324 63.4554 53.3792 61.3282 51.3879C60.3757 50.4576 59.1056 49.9235 57.7745 49.8934L57.7787 49.8764Z" fill="#0F2064"/>
<path d="M58.1864 57.2345C57.8924 57.2414 57.6011 57.1773 57.3372 57.0477C57.0999 56.926 56.8958 56.7482 56.7428 56.5297C56.5802 56.2926 56.4622 56.0279 56.3946 55.7485C56.2409 55.1022 56.2409 54.4289 56.3946 53.7827C56.463 53.4988 56.5824 53.2298 56.747 52.9887C56.902 52.7682 57.1072 52.5877 57.3457 52.4622C57.6094 52.3315 57.9006 52.266 58.1949 52.2712C58.4893 52.2644 58.7809 52.33 59.044 52.4622C59.2825 52.5877 59.4877 52.7682 59.6427 52.9887C59.8079 53.229 59.926 53.4984 59.9908 53.7827C60.0668 54.1069 60.1039 54.439 60.1012 54.772C60.1038 55.1026 60.0639 55.4323 59.9824 55.7527C59.9132 56.0323 59.7938 56.297 59.6299 56.534C59.4741 56.7531 59.2672 56.9309 59.0271 57.052C58.7647 57.1771 58.477 57.2396 58.1864 57.2345V57.2345ZM58.1864 56.1433C58.2835 56.1335 58.3756 56.0952 58.4511 56.0333C58.5267 55.9713 58.5822 55.8885 58.611 55.7952C58.8267 55.1214 58.8267 54.397 58.611 53.7232C58.5822 53.6299 58.5267 53.5471 58.4511 53.4852C58.3756 53.4232 58.2835 53.3849 58.1864 53.3751C58.0834 53.3789 57.9841 53.4144 57.9021 53.4767C57.82 53.539 57.7592 53.6251 57.7278 53.7232C57.6022 54.055 57.5473 54.4093 57.5665 54.7635C57.5479 55.1152 57.6043 55.4669 57.7321 55.7952C57.7647 55.895 57.8276 55.9822 57.9121 56.0446C57.9966 56.107 58.0984 56.1415 58.2034 56.1433H58.1864Z" fill="#0F2064"/>
<path d="M93.3715 60.5674C93.3375 63.0342 92.7643 65.7176 90.599 66.571C90.2353 66.7099 89.8535 66.7957 89.4653 66.8257C84.192 67.28 81.9332 65.4416 81.7804 56.9457C81.7804 55.6719 92.7049 54.861 92.9512 56.0965C93.1251 56.9815 93.2456 57.8762 93.3121 58.7756" fill="#0F2064"/>
<path d="M88.1111 67.2079C86.209 67.2079 84.88 66.7833 83.8907 65.896C82.2943 64.4566 81.5428 61.6968 81.4579 56.95C81.4579 56.6825 81.4579 55.8631 86.1665 55.3663C86.8628 55.2941 92.9938 54.687 93.2613 56.0372C93.4382 56.9348 93.5616 57.8422 93.6307 58.7545C93.6337 58.7963 93.6285 58.8383 93.6154 58.8781C93.6022 58.9179 93.5813 58.9548 93.5539 58.9865C93.5265 59.0182 93.4931 59.0443 93.4557 59.0631C93.4182 59.0819 93.3774 59.0932 93.3356 59.0963C93.2938 59.0993 93.2517 59.0941 93.2119 59.081C93.1721 59.0678 93.1353 59.0469 93.1036 59.0195C93.0718 58.9921 93.0458 58.9587 93.027 58.9213C93.0081 58.8838 92.9969 58.843 92.9938 58.8012C92.9275 57.9146 92.8084 57.0327 92.6371 56.1603C92.4546 55.931 90.6586 55.6593 87.419 55.8928C84.1795 56.1263 82.2561 56.6868 82.099 56.9797C82.1882 61.4973 82.8717 64.1127 84.3281 65.4247C85.398 66.3885 86.9775 66.7239 89.4443 66.5116C89.8035 66.4832 90.1567 66.4031 90.493 66.2738C92.565 65.4586 93.0405 62.7201 93.0617 60.5632C93.0617 60.4788 93.0953 60.3978 93.155 60.338C93.2147 60.2783 93.2957 60.2448 93.3802 60.2448C93.4646 60.2448 93.5456 60.2783 93.6053 60.338C93.6651 60.3978 93.6986 60.4788 93.6986 60.5632C93.6519 63.9344 92.6244 66.1125 90.7265 66.8598C90.3329 67.0103 89.9196 67.1032 89.4995 67.1357C89.0013 67.1839 88.5385 67.2079 88.1111 67.2079Z" fill="#0F2064"/>
<path d="M93.0403 63.3653C93.7249 63.3744 94.3954 63.1699 94.9585 62.7803C95.5216 62.3907 95.9493 61.8353 96.1822 61.1914C94.8278 61.1914 91.6731 59.9517 91.6731 59.9517L93.0403 63.3653Z" fill="#0F2064"/>
<path d="M93.1125 63.6837H93.0361C92.9737 63.6824 92.9131 63.6628 92.8617 63.6273C92.8104 63.5918 92.7706 63.542 92.7474 63.4841L91.3802 60.0875C91.3518 60.0281 91.3426 59.9613 91.3537 59.8964C91.3648 59.8315 91.3958 59.7716 91.4424 59.7251C91.489 59.6785 91.5488 59.6475 91.6137 59.6364C91.6786 59.6253 91.7454 59.6345 91.8048 59.6629C91.8345 59.6629 94.9127 60.8814 96.195 60.8814C96.2453 60.8826 96.2946 60.8957 96.3389 60.9196C96.3833 60.9435 96.4212 60.9775 96.4498 61.019C96.4784 61.0604 96.4968 61.108 96.5034 61.1579C96.51 61.2078 96.5047 61.2586 96.4879 61.306C96.2335 61.9983 95.7742 62.5967 95.1712 63.0215C94.5682 63.4462 93.8501 63.6772 93.1125 63.6837V63.6837ZM92.2379 60.5078L93.2569 63.0553C93.7652 63.0304 94.2581 62.8721 94.6859 62.5963C95.1136 62.3205 95.4613 61.937 95.694 61.4843C94.5145 61.2652 93.3576 60.9383 92.2379 60.5078V60.5078Z" fill="#0F2064"/>
</svg>
